<mxfile host="Electron" modified="2024-02-16T05:28:40.233Z" agent="Mozilla/5.0 (Macintosh; Intel Mac OS X 10_15_7) AppleWebKit/537.36 (KHTML, like Gecko) draw.io/23.0.2 Chrome/120.0.6099.109 Electron/28.1.0 Safari/537.36" etag="_BiwM3XUp4eGSmstVi8j" version="23.0.2" type="device">
  <diagram name="페이지-1" id="mjToNelm0le4NcHZLaOO">
    <mxGraphModel dx="1114" dy="894" grid="1" gridSize="10" guides="1" tooltips="1" connect="1" arrows="1" fold="1" page="1" pageScale="1" pageWidth="827" pageHeight="1169" math="0" shadow="0">
      <root>
        <mxCell id="0" />
        <mxCell id="1" parent="0" />
        <mxCell id="uezXtPm5yqgQykkSHWiv-40" style="edgeStyle=orthogonalEdgeStyle;rounded=0;orthogonalLoop=1;jettySize=auto;html=1;entryX=0;entryY=0.5;entryDx=0;entryDy=0;endArrow=block;endFill=1;dashed=1;" edge="1" parent="1" source="uezXtPm5yqgQykkSHWiv-34" target="uezXtPm5yqgQykkSHWiv-35">
          <mxGeometry relative="1" as="geometry">
            <Array as="points">
              <mxPoint x="280" y="216" />
            </Array>
          </mxGeometry>
        </mxCell>
        <mxCell id="uezXtPm5yqgQykkSHWiv-42" style="edgeStyle=orthogonalEdgeStyle;rounded=0;orthogonalLoop=1;jettySize=auto;html=1;endArrow=block;endFill=1;" edge="1" parent="1" source="uezXtPm5yqgQykkSHWiv-34" target="uezXtPm5yqgQykkSHWiv-36">
          <mxGeometry relative="1" as="geometry" />
        </mxCell>
        <mxCell id="uezXtPm5yqgQykkSHWiv-34" value="인증 필터&lt;br&gt;&lt;br&gt;(&lt;b&gt;AuthenticationFilter&lt;/b&gt;)" style="rounded=0;whiteSpace=wrap;html=1;" vertex="1" parent="1">
          <mxGeometry x="190" y="268" width="145" height="60" as="geometry" />
        </mxCell>
        <mxCell id="uezXtPm5yqgQykkSHWiv-35" value="보안 컨텍스트&lt;br&gt;&lt;br&gt;(&lt;b&gt;SerucityContext&lt;/b&gt;)" style="rounded=0;whiteSpace=wrap;html=1;" vertex="1" parent="1">
          <mxGeometry x="341" y="188" width="146" height="55" as="geometry" />
        </mxCell>
        <mxCell id="uezXtPm5yqgQykkSHWiv-41" style="edgeStyle=orthogonalEdgeStyle;rounded=0;orthogonalLoop=1;jettySize=auto;html=1;entryX=1;entryY=0.5;entryDx=0;entryDy=0;endArrow=block;endFill=1;dashed=1;" edge="1" parent="1" source="uezXtPm5yqgQykkSHWiv-36" target="uezXtPm5yqgQykkSHWiv-35">
          <mxGeometry relative="1" as="geometry" />
        </mxCell>
        <mxCell id="uezXtPm5yqgQykkSHWiv-43" style="edgeStyle=orthogonalEdgeStyle;rounded=0;orthogonalLoop=1;jettySize=auto;html=1;entryX=0.5;entryY=0;entryDx=0;entryDy=0;endArrow=block;endFill=1;" edge="1" parent="1" source="uezXtPm5yqgQykkSHWiv-36" target="uezXtPm5yqgQykkSHWiv-37">
          <mxGeometry relative="1" as="geometry" />
        </mxCell>
        <mxCell id="uezXtPm5yqgQykkSHWiv-36" value="권한 부여 필터&lt;br&gt;&lt;br&gt;(&lt;b&gt;AuthorizationFilter&lt;/b&gt;)" style="rounded=0;whiteSpace=wrap;html=1;fillColor=#f8cecc;strokeColor=#b85450;" vertex="1" parent="1">
          <mxGeometry x="487" y="268" width="145" height="60" as="geometry" />
        </mxCell>
        <mxCell id="uezXtPm5yqgQykkSHWiv-37" value="컨트롤러" style="rounded=0;whiteSpace=wrap;html=1;" vertex="1" parent="1">
          <mxGeometry x="499.5" y="358" width="120" height="30" as="geometry" />
        </mxCell>
        <mxCell id="uezXtPm5yqgQykkSHWiv-39" style="edgeStyle=orthogonalEdgeStyle;rounded=0;orthogonalLoop=1;jettySize=auto;html=1;endArrow=block;endFill=1;" edge="1" parent="1" source="uezXtPm5yqgQykkSHWiv-38" target="uezXtPm5yqgQykkSHWiv-34">
          <mxGeometry relative="1" as="geometry" />
        </mxCell>
        <mxCell id="uezXtPm5yqgQykkSHWiv-38" value="" style="sketch=0;outlineConnect=0;fontColor=#232F3E;gradientColor=none;fillColor=#232F3D;strokeColor=none;dashed=0;verticalLabelPosition=bottom;verticalAlign=top;align=center;html=1;fontSize=12;fontStyle=0;aspect=fixed;pointerEvents=1;shape=mxgraph.aws4.user;" vertex="1" parent="1">
          <mxGeometry x="60" y="283" width="30" height="30" as="geometry" />
        </mxCell>
        <mxCell id="uezXtPm5yqgQykkSHWiv-53" style="edgeStyle=orthogonalEdgeStyle;rounded=0;orthogonalLoop=1;jettySize=auto;html=1;fillColor=#d5e8d4;strokeColor=#82b366;curved=1;endArrow=block;endFill=1;" edge="1" parent="1" source="uezXtPm5yqgQykkSHWiv-44">
          <mxGeometry relative="1" as="geometry">
            <mxPoint x="130" y="298" as="targetPoint" />
          </mxGeometry>
        </mxCell>
        <mxCell id="uezXtPm5yqgQykkSHWiv-44" value="① 클라이언트가 요청" style="text;html=1;strokeColor=#82b366;fillColor=#d5e8d4;align=center;verticalAlign=middle;whiteSpace=wrap;rounded=1;" vertex="1" parent="1">
          <mxGeometry x="70" y="213" width="150" height="30" as="geometry" />
        </mxCell>
        <mxCell id="uezXtPm5yqgQykkSHWiv-54" style="edgeStyle=orthogonalEdgeStyle;rounded=0;orthogonalLoop=1;jettySize=auto;html=1;fillColor=#d5e8d4;strokeColor=#82b366;curved=1;endArrow=block;endFill=1;" edge="1" parent="1">
          <mxGeometry relative="1" as="geometry">
            <mxPoint x="290" y="216" as="targetPoint" />
            <mxPoint x="310" y="163" as="sourcePoint" />
          </mxGeometry>
        </mxCell>
        <mxCell id="uezXtPm5yqgQykkSHWiv-47" value="② 인증 완료 후 사용자 세부 정보가 보안 컨텍스트에 저장됨" style="text;html=1;strokeColor=#82b366;fillColor=#d5e8d4;align=center;verticalAlign=middle;whiteSpace=wrap;rounded=1;" vertex="1" parent="1">
          <mxGeometry x="220" y="120" width="180" height="45" as="geometry" />
        </mxCell>
        <mxCell id="uezXtPm5yqgQykkSHWiv-55" style="edgeStyle=orthogonalEdgeStyle;rounded=0;orthogonalLoop=1;jettySize=auto;html=1;fillColor=#d5e8d4;strokeColor=#82b366;curved=1;endArrow=block;endFill=1;" edge="1" parent="1" source="uezXtPm5yqgQykkSHWiv-49">
          <mxGeometry relative="1" as="geometry">
            <mxPoint x="410" y="298" as="targetPoint" />
          </mxGeometry>
        </mxCell>
        <mxCell id="uezXtPm5yqgQykkSHWiv-49" value="③ 요청이 권한 부여 필터로 위임됨" style="text;html=1;strokeColor=#b85450;fillColor=#f8cecc;align=center;verticalAlign=middle;whiteSpace=wrap;rounded=1;" vertex="1" parent="1">
          <mxGeometry x="286" y="348" width="184" height="30" as="geometry" />
        </mxCell>
        <mxCell id="uezXtPm5yqgQykkSHWiv-50" value="④ 권한 부여 필터가 요청의 허용/거부 결정을 함" style="text;html=1;strokeColor=#b85450;fillColor=#f8cecc;align=center;verticalAlign=middle;whiteSpace=wrap;rounded=1;" vertex="1" parent="1">
          <mxGeometry x="585" y="178" width="235" height="30" as="geometry" />
        </mxCell>
        <mxCell id="uezXtPm5yqgQykkSHWiv-57" style="edgeStyle=orthogonalEdgeStyle;rounded=0;orthogonalLoop=1;jettySize=auto;html=1;fillColor=#d5e8d4;strokeColor=#82b366;endArrow=block;endFill=1;" edge="1" parent="1" source="uezXtPm5yqgQykkSHWiv-51">
          <mxGeometry relative="1" as="geometry">
            <mxPoint x="560" y="343" as="targetPoint" />
          </mxGeometry>
        </mxCell>
        <mxCell id="uezXtPm5yqgQykkSHWiv-51" value="⑤ 권한이 부여되면 요청이 컨트롤러로 전달됨" style="text;html=1;strokeColor=#b85450;fillColor=#f8cecc;align=center;verticalAlign=middle;whiteSpace=wrap;rounded=1;" vertex="1" parent="1">
          <mxGeometry x="650" y="328" width="230" height="30" as="geometry" />
        </mxCell>
        <mxCell id="uezXtPm5yqgQykkSHWiv-56" style="edgeStyle=orthogonalEdgeStyle;rounded=0;orthogonalLoop=1;jettySize=auto;html=1;entryX=0.9;entryY=-0.017;entryDx=0;entryDy=0;entryPerimeter=0;fillColor=#d5e8d4;strokeColor=#82b366;curved=1;endArrow=block;endFill=1;" edge="1" parent="1" source="uezXtPm5yqgQykkSHWiv-50" target="uezXtPm5yqgQykkSHWiv-36">
          <mxGeometry relative="1" as="geometry" />
        </mxCell>
      </root>
    </mxGraphModel>
  </diagram>
</mxfile>
